<?xml version="1.0" encoding="utf-8"?>
<!-- Generator: Adobe Illustrator 28.1.0, SVG Export Plug-In . SVG Version: 6.00 Build 0)  -->
<svg version="1.1" id="Layer_1" xmlns="http://www.w3.org/2000/svg" xmlns:xlink="http://www.w3.org/1999/xlink" x="0px" y="0px"
	 viewBox="0 0 521 226" style="enable-background:new 0 0 521 226;" xml:space="preserve">
<style type="text/css">
	.st0{fill:#006BAC;}
</style>
<g>
	<path d="M131.1,88.6L147,77.7c3.4,6.1,8.4,8.9,13.1,8.9c7.6,0,11.7-3.5,11.7-15.1V13.9h23.5v59.2c0,17.5-10.1,31.9-32.1,31.9
		C148,105,138,99.6,131.1,88.6z"/>
	<path d="M217.3,13.9h28.1c29.8,0,49.5,13.2,49.5,44.3s-19.7,45.1-48.2,45.1h-29.4V13.9z M244,86c15.8,0,26.9-6.6,26.9-27.8
		S259.7,31.1,244,31.1h-3.2v55H244z"/>
	<path d="M313.1,13.9h25.4l15.5,38.6c2,5.2,3.5,10.8,5.4,16.2h0.7c2-5.4,3.5-11,5.4-16.2l15-38.6h25.5v89.4h-21.4V72.7
		c0-8.9,1.8-22.2,3.2-31h-0.7l-8.1,21.4l-13.1,32.6h-12.9l-13.3-32.6l-7.9-21.4h-0.5c1.2,8.8,3,22.1,3,31v30.6h-21V13.9z"/>
</g>
<g>
	<path d="M26.8,167c0-29.8,19.9-46.8,42.6-46.8c11.6,0,21,5.4,27.1,11.6l-11.2,13.7c-4.6-4.1-9.2-7-15.6-7c-11.5,0-21,10.3-21,27.7
		c0,17.8,8.2,28.1,20.8,28.1c7.2,0,12.8-3.6,17-8.2l11.3,13.4c-7.6,8.8-17.5,13.2-29.2,13.2C46,212.9,26.8,197.3,26.8,167z"/>
	<path d="M106.2,192.1c0-14.4,11.3-22.2,37.9-25.1c-0.5-5.5-3.4-8.8-10.3-8.8c-5.4,0-11,2.2-17.9,6l-7.4-14c9-5.4,18.7-9,29.4-9
		c17.6,0,27.6,9.8,27.6,31.2v38.8h-17.4l-1.4-6.8h-0.6c-5.6,5-12,8.5-19.6,8.5C113.9,212.9,106.2,203.5,106.2,192.1z M144.1,190.9
		V180c-13.3,1.7-17.6,5.6-17.6,10.4c0,4,2.9,5.9,7.3,5.9C138.1,196.3,141,194.3,144.1,190.9z"/>
	<path d="M185.5,159.6h-9.1v-15.8l9.1-0.7v-2.8c0-14.4,6.8-26.6,25.8-26.6c6,0,10.9,1.2,13.9,2.3l-3.8,15.8c-2.2-1-4.7-1.4-7-1.4
		c-4.7,0-7.6,2.5-7.6,9.4v3.2H219v16.7h-12.1v51.6h-21.4V159.6z"/>
	<path d="M224.4,177c0-22.1,16-35.8,32.4-35.8c19.7,0,29.3,14.3,29.3,32.9c0,3.8-0.5,7.6-1,9.2h-40.1c1.9,9.4,8.4,13.2,17,13.2
		c4.9,0,9.5-1.4,14.4-4.3l7.1,12.8c-7.1,5-16.4,7.8-24.4,7.8C239.5,212.9,224.4,199.7,224.4,177z M268,169.3c0-6.7-3-11.8-10.8-11.8
		c-5.9,0-11,3.7-12.5,11.8H268z"/>
</g>
<path class="st0" d="M314.6,212.2v-10.1h80.8v10.1H314.6z M334.7,192c-5.6,0-10.3-2-14.3-5.9c-4-4-5.9-8.7-5.9-14.3v-50.5h80.8
	c2.8,0,5.2,1,7.1,3c2,2,3,4.4,3,7.1v15.1c0,2.8-1,5.2-3,7.1c-2,2-4.4,3-7.1,3h-10.1v15.1c0,5.6-2,10.3-5.9,14.3
	c-4,4-8.7,5.9-14.3,5.9H334.7z M334.7,181.9H365c2.8,0,5.2-1,7.1-3c2-2,3-4.4,3-7.1v-40.4h-50.5v40.4c0,2.8,1,5.2,3,7.1
	C329.6,180.9,332,181.9,334.7,181.9z M385.2,146.5h10.1v-15.1h-10.1V146.5z M334.7,181.9h-10.1h50.5H334.7z"/>
<g>
	<path d="M481.6,18.4v52.9h-9.4v-4h-24.9v4h-9V18.4H481.6z M447.3,27.2v11h24.9v-11H447.3z M472.2,58.5V46.8h-24.9v11.7H472.2z"/>
	<path d="M469.6,107c4.6,8.3,11.7,16,19.9,20.4c-2.2,1.8-5.3,5.5-6.8,7.9c-3.3-2.2-6.4-4.7-9.2-7.7v6.9h-9.1v9.5h-9.3v-9.5h-9.5
		v-6.2c-2.6,2.8-5.6,5.2-8.7,7.3c-1.5-2.2-4.4-5.5-6.4-7.3c8.1-4.6,15.1-12.6,19.5-21.3h-17v-8.9h22V87h9.3v11.1h22.2v8.9H469.6z
		 M455.2,125.6v-10.1c-2.1,3.7-4.4,7.1-7,10.1H455.2z M471.7,125.6c-2.7-3.1-5.1-6.6-7.3-10.3v10.3H471.7z"/>
	<path d="M487.7,208.4h-23.6v7.6H455v-7.6h-22.7v-7.9H455v-2.3h-16.9v-24.7H455v-2h-21.5v-7.9H455V159h9.1v4.6H486v7.9h-21.9v2h17.3
		v24.7h-17.3v2.3h23.6V208.4z M446.5,182.7h8.5v-2.2h-8.5V182.7z M455,191.4v-2.3h-8.5v2.3H455z M464.1,180.5v2.2h8.5v-2.2H464.1z
		 M472.6,189.1h-8.5v2.3h8.5V189.1z"/>
</g>
<path class="st0" d="M42.1,104c-2.5,0-4.6-0.9-6.4-2.7c-1.8-1.8-2.7-3.9-2.7-6.4V22.1c0-2.5,0.9-4.6,2.7-6.4
	c1.8-1.8,3.9-2.7,6.4-2.7h63.7v9.1h-9.1v9.1c0,1.3-0.4,2.4-1.3,3.2s-2,1.3-3.2,1.3H55.8c-1.3,0-2.4-0.4-3.2-1.3s-1.3-2-1.3-3.2v-9.1
	h-9.1v72.8h18.4c-2.9-2-5.2-4.6-6.8-7.8c-1.7-3.1-2.5-6.6-2.5-10.4V54h45.5v22.7c0,3.8-0.8,7.3-2.5,10.4c-1.7,3.1-3.9,5.7-6.8,7.8
	h18.4v9.1H42.1z M73.9,90.3c3.8,0,7-1.3,9.7-4c2.7-2.7,4-5.9,4-9.7V63H60.3v13.6c0,3.8,1.3,7,4,9.7S70.2,90.3,73.9,90.3z M73.9,49.4
	c1.3,0,2.4-0.4,3.2-1.3s1.3-2,1.3-3.2c0-1.3-0.4-2.4-1.3-3.2s-2-1.3-3.2-1.3c-1.3,0-2.4,0.4-3.2,1.3c-0.9,0.9-1.3,2-1.3,3.2
	c0,1.3,0.4,2.4,1.3,3.2C71.6,49,72.7,49.4,73.9,49.4z"/>
</svg>
