<?xml version="1.0" encoding="utf-8" ?>
<svg baseProfile="full" height="32" version="1.1" width="32" xmlns="http://www.w3.org/2000/svg" xmlns:ev="http://www.w3.org/2001/xml-events" xmlns:xlink="http://www.w3.org/1999/xlink"><defs /><rect fill="rgb(43,18,10)" height="1" width="1" x="10" y="5" /><rect fill="rgb(43,19,8)" height="1" width="1" x="11" y="5" /><rect fill="rgb(4,0,2)" height="1" width="1" x="12" y="5" /><rect fill="rgb(198,104,35)" height="1" width="1" x="13" y="5" /><rect fill="rgb(199,104,36)" height="1" width="1" x="14" y="5" /><rect fill="rgb(197,105,34)" height="1" width="1" x="15" y="5" /><rect fill="rgb(199,104,36)" height="1" width="1" x="16" y="5" /><rect fill="rgb(199,104,35)" height="1" width="1" x="17" y="5" /><rect fill="rgb(196,104,35)" height="1" width="1" x="18" y="5" /><rect fill="rgb(48,22,9)" height="1" width="1" x="19" y="5" /><rect fill="rgb(43,19,10)" height="1" width="1" x="20" y="5" /><rect fill="rgb(43,18,11)" height="1" width="1" x="21" y="5" /><rect fill="rgb(0,0,0)" height="1" width="1" x="8" y="6" /><rect fill="rgb(0,0,0)" height="1" width="1" x="9" y="6" /><rect fill="rgb(198,103,35)" height="1" width="1" x="10" y="6" /><rect fill="rgb(206,110,37)" height="1" width="1" x="11" y="6" /><rect fill="rgb(209,115,38)" height="1" width="1" x="12" y="6" /><rect fill="rgb(204,109,37)" height="1" width="1" x="13" y="6" /><rect fill="rgb(174,77,22)" height="1" width="1" x="14" y="6" /><rect fill="rgb(172,75,23)" height="1" width="1" x="15" y="6" /><rect fill="rgb(173,74,23)" height="1" width="1" x="16" y="6" /><rect fill="rgb(174,77,22)" height="1" width="1" x="17" y="6" /><rect fill="rgb(175,76,24)" height="1" width="1" x="18" y="6" /><rect fill="rgb(204,108,36)" height="1" width="1" x="19" y="6" /><rect fill="rgb(205,111,36)" height="1" width="1" x="20" y="6" /><rect fill="rgb(207,112,36)" height="1" width="1" x="21" y="6" /><rect fill="rgb(5,2,5)" height="1" width="1" x="22" y="6" /><rect fill="rgb(0,0,0)" height="1" width="1" x="23" y="6" /><rect fill="rgb(43,18,9)" height="1" width="1" x="6" y="7" /><rect fill="rgb(197,102,36)" height="1" width="1" x="7" y="7" /><rect fill="rgb(197,101,35)" height="1" width="1" x="8" y="7" /><rect fill="rgb(172,76,23)" height="1" width="1" x="9" y="7" /><rect fill="rgb(173,75,24)" height="1" width="1" x="10" y="7" /><rect fill="rgb(45,20,9)" height="1" width="1" x="11" y="7" /><rect fill="rgb(43,19,10)" height="1" width="1" x="12" y="7" /><rect fill="rgb(45,19,11)" height="1" width="1" x="13" y="7" /><rect fill="rgb(44,18,9)" height="1" width="1" x="14" y="7" /><rect fill="rgb(43,19,10)" height="1" width="1" x="15" y="7" /><rect fill="rgb(45,20,10)" height="1" width="1" x="16" y="7" /><rect fill="rgb(44,21,12)" height="1" width="1" x="17" y="7" /><rect fill="rgb(44,19,9)" height="1" width="1" x="18" y="7" /><rect fill="rgb(44,18,10)" height="1" width="1" x="19" y="7" /><rect fill="rgb(42,16,9)" height="1" width="1" x="20" y="7" /><rect fill="rgb(174,76,24)" height="1" width="1" x="21" y="7" /><rect fill="rgb(173,77,24)" height="1" width="1" x="22" y="7" /><rect fill="rgb(174,75,25)" height="1" width="1" x="23" y="7" /><rect fill="rgb(172,75,25)" height="1" width="1" x="24" y="7" /><rect fill="rgb(44,20,11)" height="1" width="1" x="25" y="7" /><rect fill="rgb(43,18,8)" height="1" width="1" x="6" y="8" /><rect fill="rgb(171,72,22)" height="1" width="1" x="7" y="8" /><rect fill="rgb(36,12,7)" height="1" width="1" x="8" y="8" /><rect fill="rgb(35,72,101)" height="1" width="1" x="9" y="8" /><rect fill="rgb(35,73,102)" height="1" width="1" x="10" y="8" /><rect fill="rgb(34,69,99)" height="1" width="1" x="11" y="8" /><rect fill="rgb(33,66,98)" height="1" width="1" x="12" y="8" /><rect fill="rgb(34,67,97)" height="1" width="1" x="13" y="8" /><rect fill="rgb(34,68,97)" height="1" width="1" x="14" y="8" /><rect fill="rgb(34,68,98)" height="1" width="1" x="15" y="8" /><rect fill="rgb(34,68,96)" height="1" width="1" x="16" y="8" /><rect fill="rgb(35,68,98)" height="1" width="1" x="17" y="8" /><rect fill="rgb(35,69,98)" height="1" width="1" x="18" y="8" /><rect fill="rgb(34,66,96)" height="1" width="1" x="19" y="8" /><rect fill="rgb(34,67,97)" height="1" width="1" x="20" y="8" /><rect fill="rgb(35,72,102)" height="1" width="1" x="21" y="8" /><rect fill="rgb(35,73,102)" height="1" width="1" x="22" y="8" /><rect fill="rgb(41,16,9)" height="1" width="1" x="23" y="8" /><rect fill="rgb(200,106,35)" height="1" width="1" x="24" y="8" /><rect fill="rgb(44,18,10)" height="1" width="1" x="25" y="8" /><rect fill="rgb(45,18,9)" height="1" width="1" x="6" y="9" /><rect fill="rgb(174,76,23)" height="1" width="1" x="7" y="9" /><rect fill="rgb(39,17,11)" height="1" width="1" x="8" y="9" /><rect fill="rgb(35,68,97)" height="1" width="1" x="9" y="9" /><rect fill="rgb(33,67,97)" height="1" width="1" x="10" y="9" /><rect fill="rgb(35,68,99)" height="1" width="1" x="11" y="9" /><rect fill="rgb(35,69,98)" height="1" width="1" x="12" y="9" /><rect fill="rgb(35,67,98)" height="1" width="1" x="13" y="9" /><rect fill="rgb(35,68,97)" height="1" width="1" x="14" y="9" /><rect fill="rgb(35,68,97)" height="1" width="1" x="15" y="9" /><rect fill="rgb(34,66,97)" height="1" width="1" x="16" y="9" /><rect fill="rgb(34,69,97)" height="1" width="1" x="17" y="9" /><rect fill="rgb(34,68,96)" height="1" width="1" x="18" y="9" /><rect fill="rgb(35,69,97)" height="1" width="1" x="19" y="9" /><rect fill="rgb(35,69,98)" height="1" width="1" x="20" y="9" /><rect fill="rgb(33,68,97)" height="1" width="1" x="21" y="9" /><rect fill="rgb(35,67,98)" height="1" width="1" x="22" y="9" /><rect fill="rgb(44,19,12)" height="1" width="1" x="23" y="9" /><rect fill="rgb(199,106,35)" height="1" width="1" x="24" y="9" /><rect fill="rgb(45,19,11)" height="1" width="1" x="25" y="9" /><rect fill="rgb(41,17,10)" height="1" width="1" x="6" y="10" /><rect fill="rgb(173,75,23)" height="1" width="1" x="7" y="10" /><rect fill="rgb(39,16,11)" height="1" width="1" x="8" y="10" /><rect fill="rgb(33,67,97)" height="1" width="1" x="9" y="10" /><rect fill="rgb(43,16,9)" height="1" width="1" x="10" y="10" /><rect fill="rgb(45,19,10)" height="1" width="1" x="11" y="10" /><rect fill="rgb(34,67,97)" height="1" width="1" x="12" y="10" /><rect fill="rgb(34,67,96)" height="1" width="1" x="13" y="10" /><rect fill="rgb(41,18,9)" height="1" width="1" x="14" y="10" /><rect fill="rgb(42,17,11)" height="1" width="1" x="15" y="10" /><rect fill="rgb(33,70,95)" height="1" width="1" x="16" y="10" /><rect fill="rgb(32,68,96)" height="1" width="1" x="17" y="10" /><rect fill="rgb(42,20,11)" height="1" width="1" x="18" y="10" /><rect fill="rgb(45,18,10)" height="1" width="1" x="19" y="10" /><rect fill="rgb(43,16,10)" height="1" width="1" x="20" y="10" /><rect fill="rgb(34,69,97)" height="1" width="1" x="21" y="10" /><rect fill="rgb(35,68,97)" height="1" width="1" x="22" y="10" /><rect fill="rgb(44,20,11)" height="1" width="1" x="23" y="10" /><rect fill="rgb(200,106,35)" height="1" width="1" x="24" y="10" /><rect fill="rgb(44,19,9)" height="1" width="1" x="25" y="10" /><rect fill="rgb(43,19,9)" height="1" width="1" x="6" y="11" /><rect fill="rgb(173,77,23)" height="1" width="1" x="7" y="11" /><rect fill="rgb(38,16,13)" height="1" width="1" x="8" y="11" /><rect fill="rgb(34,66,97)" height="1" width="1" x="9" y="11" /><rect fill="rgb(2,0,5)" height="1" width="1" x="10" y="11" /><rect fill="rgb(198,104,37)" height="1" width="1" x="11" y="11" /><rect fill="rgb(39,14,16)" height="1" width="1" x="12" y="11" /><rect fill="rgb(34,66,97)" height="1" width="1" x="13" y="11" /><rect fill="rgb(196,103,36)" height="1" width="1" x="14" y="11" /><rect fill="rgb(170,76,23)" height="1" width="1" x="15" y="11" /><rect fill="rgb(34,69,99)" height="1" width="1" x="16" y="11" /><rect fill="rgb(52,19,12)" height="1" width="1" x="17" y="11" /><rect fill="rgb(199,107,37)" height="1" width="1" x="18" y="11" /><rect fill="rgb(199,106,35)" height="1" width="1" x="19" y="11" /><rect fill="rgb(199,104,36)" height="1" width="1" x="20" y="11" /><rect fill="rgb(33,69,97)" height="1" width="1" x="21" y="11" /><rect fill="rgb(34,69,98)" height="1" width="1" x="22" y="11" /><rect fill="rgb(43,20,9)" height="1" width="1" x="23" y="11" /><rect fill="rgb(201,106,35)" height="1" width="1" x="24" y="11" /><rect fill="rgb(44,19,10)" height="1" width="1" x="25" y="11" /><rect fill="rgb(44,18,9)" height="1" width="1" x="6" y="12" /><rect fill="rgb(173,76,24)" height="1" width="1" x="7" y="12" /><rect fill="rgb(39,17,12)" height="1" width="1" x="8" y="12" /><rect fill="rgb(33,67,96)" height="1" width="1" x="9" y="12" /><rect fill="rgb(5,1,4)" height="1" width="1" x="10" y="12" /><rect fill="rgb(172,75,21)" height="1" width="1" x="11" y="12" /><rect fill="rgb(123,55,22)" height="1" width="1" x="12" y="12" /><rect fill="rgb(34,67,97)" height="1" width="1" x="13" y="12" /><rect fill="rgb(197,102,36)" height="1" width="1" x="14" y="12" /><rect fill="rgb(170,77,23)" height="1" width="1" x="15" y="12" /><rect fill="rgb(44,21,11)" height="1" width="1" x="16" y="12" /><rect fill="rgb(196,102,35)" height="1" width="1" x="17" y="12" /><rect fill="rgb(44,21,9)" height="1" width="1" x="18" y="12" /><rect fill="rgb(45,17,10)" height="1" width="1" x="19" y="12" /><rect fill="rgb(197,104,34)" height="1" width="1" x="20" y="12" /><rect fill="rgb(46,18,10)" height="1" width="1" x="21" y="12" /><rect fill="rgb(35,67,98)" height="1" width="1" x="22" y="12" /><rect fill="rgb(44,19,11)" height="1" width="1" x="23" y="12" /><rect fill="rgb(200,106,36)" height="1" width="1" x="24" y="12" /><rect fill="rgb(45,18,12)" height="1" width="1" x="25" y="12" /><rect fill="rgb(43,17,11)" height="1" width="1" x="6" y="13" /><rect fill="rgb(174,76,24)" height="1" width="1" x="7" y="13" /><rect fill="rgb(41,18,12)" height="1" width="1" x="8" y="13" /><rect fill="rgb(34,68,97)" height="1" width="1" x="9" y="13" /><rect fill="rgb(1,0,4)" height="1" width="1" x="10" y="13" /><rect fill="rgb(172,75,24)" height="1" width="1" x="11" y="13" /><rect fill="rgb(112,49,16)" height="1" width="1" x="12" y="13" /><rect fill="rgb(35,79,112)" height="1" width="1" x="13" y="13" /><rect fill="rgb(196,105,37)" height="1" width="1" x="14" y="13" /><rect fill="rgb(171,77,25)" height="1" width="1" x="15" y="13" /><rect fill="rgb(42,3,0)" height="1" width="1" x="16" y="13" /><rect fill="rgb(42,3,0)" height="1" width="1" x="17" y="13" /><rect fill="rgb(34,69,98)" height="1" width="1" x="18" y="13" /><rect fill="rgb(46,1,0)" height="1" width="1" x="19" y="13" /><rect fill="rgb(198,103,37)" height="1" width="1" x="20" y="13" /><rect fill="rgb(46,20,10)" height="1" width="1" x="21" y="13" /><rect fill="rgb(34,68,97)" height="1" width="1" x="22" y="13" /><rect fill="rgb(44,19,11)" height="1" width="1" x="23" y="13" /><rect fill="rgb(200,106,35)" height="1" width="1" x="24" y="13" /><rect fill="rgb(43,18,10)" height="1" width="1" x="25" y="13" /><rect fill="rgb(44,19,10)" height="1" width="1" x="6" y="14" /><rect fill="rgb(174,77,25)" height="1" width="1" x="7" y="14" /><rect fill="rgb(41,17,13)" height="1" width="1" x="8" y="14" /><rect fill="rgb(34,68,97)" height="1" width="1" x="9" y="14" /><rect fill="rgb(0,0,3)" height="1" width="1" x="10" y="14" /><rect fill="rgb(174,76,24)" height="1" width="1" x="11" y="14" /><rect fill="rgb(198,104,36)" height="1" width="1" x="12" y="14" /><rect fill="rgb(45,18,10)" height="1" width="1" x="13" y="14" /><rect fill="rgb(198,104,34)" height="1" width="1" x="14" y="14" /><rect fill="rgb(172,76,24)" height="1" width="1" x="15" y="14" /><rect fill="rgb(35,67,98)" height="1" width="1" x="16" y="14" /><rect fill="rgb(34,68,97)" height="1" width="1" x="17" y="14" /><rect fill="rgb(34,68,97)" height="1" width="1" x="18" y="14" /><rect fill="rgb(253,172,57)" height="1" width="1" x="19" y="14" /><rect fill="rgb(174,76,24)" height="1" width="1" x="20" y="14" /><rect fill="rgb(34,64,92)" height="1" width="1" x="21" y="14" /><rect fill="rgb(35,67,98)" height="1" width="1" x="22" y="14" /><rect fill="rgb(43,19,10)" height="1" width="1" x="23" y="14" /><rect fill="rgb(199,106,35)" height="1" width="1" x="24" y="14" /><rect fill="rgb(44,19,9)" height="1" width="1" x="25" y="14" /><rect fill="rgb(45,17,9)" height="1" width="1" x="6" y="15" /><rect fill="rgb(173,74,25)" height="1" width="1" x="7" y="15" /><rect fill="rgb(39,16,12)" height="1" width="1" x="8" y="15" /><rect fill="rgb(36,68,98)" height="1" width="1" x="9" y="15" /><rect fill="rgb(1,0,5)" height="1" width="1" x="10" y="15" /><rect fill="rgb(173,75,21)" height="1" width="1" x="11" y="15" /><rect fill="rgb(3,0,0)" height="1" width="1" x="12" y="15" /><rect fill="rgb(173,75,23)" height="1" width="1" x="13" y="15" /><rect fill="rgb(199,103,35)" height="1" width="1" x="14" y="15" /><rect fill="rgb(169,77,23)" height="1" width="1" x="15" y="15" /><rect fill="rgb(34,67,96)" height="1" width="1" x="16" y="15" /><rect fill="rgb(33,67,92)" height="1" width="1" x="17" y="15" /><rect fill="rgb(191,99,34)" height="1" width="1" x="18" y="15" /><rect fill="rgb(3,0,4)" height="1" width="1" x="19" y="15" /><rect fill="rgb(33,69,97)" height="1" width="1" x="20" y="15" /><rect fill="rgb(34,68,97)" height="1" width="1" x="21" y="15" /><rect fill="rgb(33,67,97)" height="1" width="1" x="22" y="15" /><rect fill="rgb(42,18,10)" height="1" width="1" x="23" y="15" /><rect fill="rgb(201,106,36)" height="1" width="1" x="24" y="15" /><rect fill="rgb(44,19,9)" height="1" width="1" x="25" y="15" /><rect fill="rgb(43,19,10)" height="1" width="1" x="6" y="16" /><rect fill="rgb(174,76,24)" height="1" width="1" x="7" y="16" /><rect fill="rgb(39,17,12)" height="1" width="1" x="8" y="16" /><rect fill="rgb(33,68,97)" height="1" width="1" x="9" y="16" /><rect fill="rgb(2,0,4)" height="1" width="1" x="10" y="16" /><rect fill="rgb(173,75,25)" height="1" width="1" x="11" y="16" /><rect fill="rgb(40,78,104)" height="1" width="1" x="12" y="16" /><rect fill="rgb(197,103,34)" height="1" width="1" x="13" y="16" /><rect fill="rgb(198,103,35)" height="1" width="1" x="14" y="16" /><rect fill="rgb(170,76,24)" height="1" width="1" x="15" y="16" /><rect fill="rgb(36,69,97)" height="1" width="1" x="16" y="16" /><rect fill="rgb(51,22,12)" height="1" width="1" x="17" y="16" /><rect fill="rgb(173,77,25)" height="1" width="1" x="18" y="16" /><rect fill="rgb(38,98,136)" height="1" width="1" x="19" y="16" /><rect fill="rgb(35,67,97)" height="1" width="1" x="20" y="16" /><rect fill="rgb(35,70,99)" height="1" width="1" x="21" y="16" /><rect fill="rgb(34,67,97)" height="1" width="1" x="22" y="16" /><rect fill="rgb(43,20,11)" height="1" width="1" x="23" y="16" /><rect fill="rgb(201,107,37)" height="1" width="1" x="24" y="16" /><rect fill="rgb(45,20,10)" height="1" width="1" x="25" y="16" /><rect fill="rgb(44,17,10)" height="1" width="1" x="6" y="17" /><rect fill="rgb(174,75,23)" height="1" width="1" x="7" y="17" /><rect fill="rgb(39,17,12)" height="1" width="1" x="8" y="17" /><rect fill="rgb(34,68,97)" height="1" width="1" x="9" y="17" /><rect fill="rgb(1,0,3)" height="1" width="1" x="10" y="17" /><rect fill="rgb(174,76,23)" height="1" width="1" x="11" y="17" /><rect fill="rgb(33,69,97)" height="1" width="1" x="12" y="17" /><rect fill="rgb(45,18,11)" height="1" width="1" x="13" y="17" /><rect fill="rgb(197,104,35)" height="1" width="1" x="14" y="17" /><rect fill="rgb(171,77,24)" height="1" width="1" x="15" y="17" /><rect fill="rgb(44,18,10)" height="1" width="1" x="16" y="17" /><rect fill="rgb(198,103,35)" height="1" width="1" x="17" y="17" /><rect fill="rgb(43,19,10)" height="1" width="1" x="18" y="17" /><rect fill="rgb(43,18,11)" height="1" width="1" x="19" y="17" /><rect fill="rgb(44,18,11)" height="1" width="1" x="20" y="17" /><rect fill="rgb(43,20,10)" height="1" width="1" x="21" y="17" /><rect fill="rgb(34,68,97)" height="1" width="1" x="22" y="17" /><rect fill="rgb(42,18,11)" height="1" width="1" x="23" y="17" /><rect fill="rgb(199,106,33)" height="1" width="1" x="24" y="17" /><rect fill="rgb(43,20,11)" height="1" width="1" x="25" y="17" /><rect fill="rgb(43,19,11)" height="1" width="1" x="6" y="18" /><rect fill="rgb(174,76,24)" height="1" width="1" x="7" y="18" /><rect fill="rgb(39,16,12)" height="1" width="1" x="8" y="18" /><rect fill="rgb(33,67,97)" height="1" width="1" x="9" y="18" /><rect fill="rgb(6,0,4)" height="1" width="1" x="10" y="18" /><rect fill="rgb(173,76,21)" height="1" width="1" x="11" y="18" /><rect fill="rgb(34,68,99)" height="1" width="1" x="12" y="18" /><rect fill="rgb(42,17,11)" height="1" width="1" x="13" y="18" /><rect fill="rgb(200,105,36)" height="1" width="1" x="14" y="18" /><rect fill="rgb(170,75,22)" height="1" width="1" x="15" y="18" /><rect fill="rgb(44,19,10)" height="1" width="1" x="16" y="18" /><rect fill="rgb(199,106,36)" height="1" width="1" x="17" y="18" /><rect fill="rgb(199,105,37)" height="1" width="1" x="18" y="18" /><rect fill="rgb(200,106,37)" height="1" width="1" x="19" y="18" /><rect fill="rgb(200,107,35)" height="1" width="1" x="20" y="18" /><rect fill="rgb(47,18,9)" height="1" width="1" x="21" y="18" /><rect fill="rgb(35,67,98)" height="1" width="1" x="22" y="18" /><rect fill="rgb(44,19,11)" height="1" width="1" x="23" y="18" /><rect fill="rgb(198,105,35)" height="1" width="1" x="24" y="18" /><rect fill="rgb(44,18,11)" height="1" width="1" x="25" y="18" /><rect fill="rgb(43,18,9)" height="1" width="1" x="6" y="19" /><rect fill="rgb(174,75,23)" height="1" width="1" x="7" y="19" /><rect fill="rgb(170,77,25)" height="1" width="1" x="8" y="19" /><rect fill="rgb(33,69,99)" height="1" width="1" x="9" y="19" /><rect fill="rgb(43,19,11)" height="1" width="1" x="10" y="19" /><rect fill="rgb(46,20,13)" height="1" width="1" x="11" y="19" /><rect fill="rgb(34,68,99)" height="1" width="1" x="12" y="19" /><rect fill="rgb(34,68,97)" height="1" width="1" x="13" y="19" /><rect fill="rgb(44,18,11)" height="1" width="1" x="14" y="19" /><rect fill="rgb(43,18,9)" height="1" width="1" x="15" y="19" /><rect fill="rgb(36,68,98)" height="1" width="1" x="16" y="19" /><rect fill="rgb(45,18,10)" height="1" width="1" x="17" y="19" /><rect fill="rgb(43,21,10)" height="1" width="1" x="18" y="19" /><rect fill="rgb(45,19,11)" height="1" width="1" x="19" y="19" /><rect fill="rgb(45,19,10)" height="1" width="1" x="20" y="19" /><rect fill="rgb(44,19,10)" height="1" width="1" x="21" y="19" /><rect fill="rgb(35,68,98)" height="1" width="1" x="22" y="19" /><rect fill="rgb(198,104,36)" height="1" width="1" x="23" y="19" /><rect fill="rgb(172,74,24)" height="1" width="1" x="24" y="19" /><rect fill="rgb(43,20,10)" height="1" width="1" x="25" y="19" /><rect fill="rgb(199,104,35)" height="1" width="1" x="7" y="20" /><rect fill="rgb(172,77,26)" height="1" width="1" x="8" y="20" /><rect fill="rgb(34,67,97)" height="1" width="1" x="9" y="20" /><rect fill="rgb(33,66,97)" height="1" width="1" x="10" y="20" /><rect fill="rgb(33,68,99)" height="1" width="1" x="11" y="20" /><rect fill="rgb(35,66,98)" height="1" width="1" x="12" y="20" /><rect fill="rgb(33,67,99)" height="1" width="1" x="13" y="20" /><rect fill="rgb(34,67,98)" height="1" width="1" x="14" y="20" /><rect fill="rgb(34,69,98)" height="1" width="1" x="15" y="20" /><rect fill="rgb(33,67,98)" height="1" width="1" x="16" y="20" /><rect fill="rgb(35,67,97)" height="1" width="1" x="17" y="20" /><rect fill="rgb(33,68,97)" height="1" width="1" x="18" y="20" /><rect fill="rgb(35,68,97)" height="1" width="1" x="19" y="20" /><rect fill="rgb(34,67,98)" height="1" width="1" x="20" y="20" /><rect fill="rgb(32,69,97)" height="1" width="1" x="21" y="20" /><rect fill="rgb(34,69,98)" height="1" width="1" x="22" y="20" /><rect fill="rgb(197,105,36)" height="1" width="1" x="23" y="20" /><rect fill="rgb(169,74,24)" height="1" width="1" x="24" y="20" /><rect fill="rgb(199,107,35)" height="1" width="1" x="7" y="21" /><rect fill="rgb(173,74,23)" height="1" width="1" x="8" y="21" /><rect fill="rgb(46,20,10)" height="1" width="1" x="9" y="21" /><rect fill="rgb(34,68,98)" height="1" width="1" x="10" y="21" /><rect fill="rgb(33,69,99)" height="1" width="1" x="11" y="21" /><rect fill="rgb(35,68,98)" height="1" width="1" x="12" y="21" /><rect fill="rgb(34,68,98)" height="1" width="1" x="13" y="21" /><rect fill="rgb(36,66,99)" height="1" width="1" x="14" y="21" /><rect fill="rgb(34,66,98)" height="1" width="1" x="15" y="21" /><rect fill="rgb(35,68,99)" height="1" width="1" x="16" y="21" /><rect fill="rgb(33,68,97)" height="1" width="1" x="17" y="21" /><rect fill="rgb(34,68,99)" height="1" width="1" x="18" y="21" /><rect fill="rgb(34,68,99)" height="1" width="1" x="19" y="21" /><rect fill="rgb(34,69,98)" height="1" width="1" x="20" y="21" /><rect fill="rgb(34,70,99)" height="1" width="1" x="21" y="21" /><rect fill="rgb(44,18,11)" height="1" width="1" x="22" y="21" /><rect fill="rgb(173,75,23)" height="1" width="1" x="23" y="21" /><rect fill="rgb(170,75,23)" height="1" width="1" x="24" y="21" /><rect fill="rgb(3,0,2)" height="1" width="1" x="8" y="22" /><rect fill="rgb(173,76,23)" height="1" width="1" x="9" y="22" /><rect fill="rgb(255,147,46)" height="1" width="1" x="10" y="22" /><rect fill="rgb(34,68,96)" height="1" width="1" x="11" y="22" /><rect fill="rgb(34,68,98)" height="1" width="1" x="12" y="22" /><rect fill="rgb(34,68,97)" height="1" width="1" x="13" y="22" /><rect fill="rgb(33,68,98)" height="1" width="1" x="14" y="22" /><rect fill="rgb(33,66,97)" height="1" width="1" x="15" y="22" /><rect fill="rgb(34,69,97)" height="1" width="1" x="16" y="22" /><rect fill="rgb(35,67,96)" height="1" width="1" x="17" y="22" /><rect fill="rgb(34,68,97)" height="1" width="1" x="18" y="22" /><rect fill="rgb(34,70,99)" height="1" width="1" x="19" y="22" /><rect fill="rgb(34,68,98)" height="1" width="1" x="20" y="22" /><rect fill="rgb(250,158,53)" height="1" width="1" x="21" y="22" /><rect fill="rgb(159,59,18)" height="1" width="1" x="22" y="22" /><rect fill="rgb(2,0,5)" height="1" width="1" x="23" y="22" /><rect fill="rgb(198,103,35)" height="1" width="1" x="9" y="23" /><rect fill="rgb(174,76,22)" height="1" width="1" x="10" y="23" /><rect fill="rgb(44,18,11)" height="1" width="1" x="11" y="23" /><rect fill="rgb(41,10,17)" height="1" width="1" x="12" y="23" /><rect fill="rgb(34,68,96)" height="1" width="1" x="13" y="23" /><rect fill="rgb(34,68,96)" height="1" width="1" x="14" y="23" /><rect fill="rgb(34,69,97)" height="1" width="1" x="15" y="23" /><rect fill="rgb(35,68,97)" height="1" width="1" x="16" y="23" /><rect fill="rgb(33,65,97)" height="1" width="1" x="17" y="23" /><rect fill="rgb(33,68,97)" height="1" width="1" x="18" y="23" /><rect fill="rgb(32,0,0)" height="1" width="1" x="19" y="23" /><rect fill="rgb(42,20,11)" height="1" width="1" x="20" y="23" /><rect fill="rgb(174,75,23)" height="1" width="1" x="21" y="23" /><rect fill="rgb(170,76,23)" height="1" width="1" x="22" y="23" /><rect fill="rgb(47,19,11)" height="1" width="1" x="10" y="24" /><rect fill="rgb(173,75,25)" height="1" width="1" x="11" y="24" /><rect fill="rgb(173,76,24)" height="1" width="1" x="12" y="24" /><rect fill="rgb(174,76,25)" height="1" width="1" x="13" y="24" /><rect fill="rgb(44,18,10)" height="1" width="1" x="14" y="24" /><rect fill="rgb(33,67,96)" height="1" width="1" x="15" y="24" /><rect fill="rgb(34,67,95)" height="1" width="1" x="16" y="24" /><rect fill="rgb(45,19,12)" height="1" width="1" x="17" y="24" /><rect fill="rgb(199,104,36)" height="1" width="1" x="18" y="24" /><rect fill="rgb(159,61,16)" height="1" width="1" x="19" y="24" /><rect fill="rgb(174,74,24)" height="1" width="1" x="20" y="24" /><rect fill="rgb(46,20,10)" height="1" width="1" x="21" y="24" /><rect fill="rgb(46,20,11)" height="1" width="1" x="11" y="25" /><rect fill="rgb(0,1,2)" height="1" width="1" x="12" y="25" /><rect fill="rgb(171,75,23)" height="1" width="1" x="13" y="25" /><rect fill="rgb(174,76,24)" height="1" width="1" x="14" y="25" /><rect fill="rgb(46,19,10)" height="1" width="1" x="15" y="25" /><rect fill="rgb(48,19,11)" height="1" width="1" x="16" y="25" /><rect fill="rgb(196,103,33)" height="1" width="1" x="17" y="25" /><rect fill="rgb(174,76,22)" height="1" width="1" x="18" y="25" /><rect fill="rgb(6,1,4)" height="1" width="1" x="19" y="25" /><rect fill="rgb(46,20,10)" height="1" width="1" x="20" y="25" /><rect fill="rgb(45,18,10)" height="1" width="1" x="14" y="26" /><rect fill="rgb(172,76,23)" height="1" width="1" x="15" y="26" /><rect fill="rgb(172,75,25)" height="1" width="1" x="16" y="26" /><rect fill="rgb(45,19,10)" height="1" width="1" x="17" y="26" /><rect fill="rgb(40,19,10)" height="1" width="1" x="15" y="27" /><rect fill="rgb(38,17,7)" height="1" width="1" x="16" y="27" /></svg>